# xmcd
#
# Track frame offsets: 
#        150
#        15200
#        43272
#        64947
#        94197
#        132372
#        175327
#
# Disc length: 2980 seconds
#
# Revision: 0
# Processed by: cddbd v1.5.2PL0 Copyright (c) Steve Scherf et al.
# Submitted via: ExactAudioCopy v0.95b4
#
DISCID=590ba207
DTITLE=Eric Clapton - 1997-10-17 - On Guitar and Vocals-ME! - Part4 - 
DTITLE=CD2
DYEAR=1997
DGENRE=Blues
TTITLE0=Tore Down
TTITLE1=Have You Ever Loved A Woman
TTITLE2=Cocaine
TTITLE3=Tearing Us Apart
TTITLE4=Old Love
TTITLE5=Sunshine Of Your Love
TTITLE6=Everyday I Have The Blues
EXTD=
EXTT0=
EXTT1=
EXTT2=
EXTT3=
EXTT4=
EXTT5=
EXTT6=
PLAYORDER=
